<svg width="233" height="14" viewBox="0 0 233 14" fill="none" xmlns="http://www.w3.org/2000/svg">
<path d="M8.134 11L7.056 8.228H2.66L1.61 11H0.14L4.088 1.074H5.67L9.618 11H8.134ZM4.844 2.502L3.15 6.954H6.566L4.844 2.502ZM12.4777 11H11.1617V0.863999H12.4777V11ZM16.3124 11H14.9964V0.863999H16.3124V11ZM27.8891 11L25.6211 6.94H24.1371V11H22.7511V1.074H26.4891C27.4038 1.074 28.1364 1.35867 28.6871 1.928C29.2471 2.488 29.5271 3.188 29.5271 4.028C29.5271 4.74667 29.3124 5.36267 28.8831 5.876C28.4538 6.38 27.8658 6.702 27.1191 6.842L29.4851 11H27.8891ZM24.1371 5.708H26.2371C26.7971 5.708 27.2498 5.55867 27.5951 5.26C27.9404 4.952 28.1131 4.54133 28.1131 4.028C28.1131 3.50533 27.9404 3.09 27.5951 2.782C27.2498 2.46467 26.7971 2.306 26.2371 2.306H24.1371V5.708ZM32.8611 11H31.5591V4.266H32.8611V11ZM31.5311 2.39C31.3537 2.20333 31.2651 1.97933 31.2651 1.718C31.2651 1.45667 31.3537 1.23267 31.5311 1.046C31.7177 0.859333 31.9417 0.766 32.2031 0.766C32.4644 0.766 32.6884 0.859333 32.8751 1.046C33.0617 1.22333 33.1551 1.44733 33.1551 1.718C33.1551 1.97933 33.0617 2.20333 32.8751 2.39C32.6884 2.56733 32.4644 2.656 32.2031 2.656C31.9417 2.656 31.7177 2.56733 31.5311 2.39ZM34.8901 11.364L36.1641 11.07C36.2107 11.546 36.4021 11.938 36.7381 12.246C37.0741 12.5633 37.4941 12.722 37.9981 12.722C39.3701 12.722 40.0561 11.994 40.0561 10.538V9.572C39.8881 9.89867 39.6221 10.1647 39.2581 10.37C38.9034 10.5753 38.4834 10.678 37.9981 10.678C37.1021 10.678 36.3601 10.3747 35.7721 9.768C35.1934 9.152 34.9041 8.368 34.9041 7.416C34.9041 6.492 35.1934 5.71733 35.7721 5.092C36.3507 4.45733 37.0927 4.14 37.9981 4.14C39.0247 4.14 39.7154 4.49467 40.0701 5.204V4.266H41.3721V10.496C41.3721 10.944 41.3114 11.3593 41.1901 11.742C41.0781 12.134 40.8961 12.4933 40.6441 12.82C40.3921 13.1467 40.0374 13.4033 39.5801 13.59C39.1321 13.7767 38.6047 13.87 37.9981 13.87C37.1674 13.87 36.4627 13.632 35.8841 13.156C35.3054 12.6893 34.9741 12.092 34.8901 11.364ZM38.1941 9.572C38.7634 9.572 39.2254 9.376 39.5801 8.984C39.9347 8.58267 40.1121 8.06 40.1121 7.416C40.1121 6.772 39.9347 6.254 39.5801 5.862C39.2254 5.46067 38.7634 5.26 38.1941 5.26C37.6154 5.26 37.1441 5.456 36.7801 5.848C36.4254 6.24 36.2481 6.76267 36.2481 7.416C36.2481 8.07867 36.4207 8.606 36.7661 8.998C37.1207 9.38067 37.5967 9.572 38.1941 9.572ZM45.0698 7.038V11H43.7538V0.863999H45.0698V5.05C45.5178 4.39667 46.1992 4.07 47.1138 4.07C47.8885 4.07 48.4812 4.31733 48.8918 4.812C49.3118 5.30667 49.5218 5.946 49.5218 6.73V11H48.2058V6.954C48.2058 5.82467 47.6832 5.26 46.6378 5.26C46.1525 5.26 45.7745 5.428 45.5038 5.764C45.2332 6.09067 45.0885 6.51533 45.0698 7.038ZM53.6592 2.138V4.266H55.1152V5.456H53.6592V8.956C53.6592 9.27333 53.7292 9.50667 53.8692 9.656C54.0185 9.80533 54.2612 9.88 54.5972 9.88C54.7932 9.88 54.9658 9.86133 55.1152 9.824V10.944C54.8912 11.028 54.5925 11.07 54.2192 11.07C53.6405 11.07 53.1832 10.902 52.8472 10.566C52.5112 10.23 52.3432 9.75867 52.3432 9.152V5.456H51.0552V4.266H51.4192C51.7645 4.266 52.0212 4.17267 52.1892 3.986C52.3665 3.79 52.4552 3.538 52.4552 3.23V2.138H53.6592ZM56.5901 9.25L57.7801 8.83C57.8267 9.194 57.9854 9.49733 58.2561 9.74C58.5267 9.97333 58.8907 10.09 59.3481 10.09C59.7027 10.09 59.9827 10.006 60.1881 9.838C60.3934 9.66067 60.4961 9.446 60.4961 9.194C60.4961 8.746 60.2067 8.45667 59.6281 8.326L58.4801 8.074C57.9574 7.962 57.5467 7.738 57.2481 7.402C56.9494 7.066 56.8001 6.66 56.8001 6.184C56.8001 5.60533 57.0334 5.106 57.5001 4.686C57.9761 4.266 58.5407 4.056 59.1941 4.056C59.6234 4.056 60.0061 4.12133 60.3421 4.252C60.6781 4.37333 60.9394 4.53667 61.1261 4.742C61.3127 4.94733 61.4527 5.13867 61.5461 5.316C61.6394 5.49333 61.7094 5.67533 61.7561 5.862L60.5941 6.296C60.5754 6.184 60.5427 6.07667 60.4961 5.974C60.4494 5.862 60.3747 5.74067 60.2721 5.61C60.1787 5.47933 60.0387 5.37667 59.8521 5.302C59.6654 5.218 59.4461 5.176 59.1941 5.176C58.8674 5.176 58.5967 5.26467 58.3821 5.442C58.1767 5.61933 58.0741 5.82933 58.0741 6.072C58.0741 6.50133 58.3307 6.772 58.8441 6.884L59.9361 7.122C60.5334 7.25267 60.9907 7.49533 61.3081 7.85C61.6347 8.19533 61.7981 8.62 61.7981 9.124C61.7981 9.656 61.5787 10.1367 61.1401 10.566C60.7107 10.9953 60.1087 11.21 59.3341 11.21C58.5034 11.21 57.8547 11.0047 57.3881 10.594C56.9214 10.174 56.6554 9.726 56.5901 9.25ZM72.8882 11L70.6202 6.94H69.1362V11H67.7502V1.074H71.4882C72.4028 1.074 73.1355 1.35867 73.6862 1.928C74.2462 2.488 74.5262 3.188 74.5262 4.028C74.5262 4.74667 74.3115 5.36267 73.8822 5.876C73.4528 6.38 72.8648 6.702 72.1182 6.842L74.4842 11H72.8882ZM69.1362 5.708H71.2362C71.7962 5.708 72.2488 5.55867 72.5942 5.26C72.9395 4.952 73.1122 4.54133 73.1122 4.028C73.1122 3.50533 72.9395 3.09 72.5942 2.782C72.2488 2.46467 71.7962 2.306 71.2362 2.306H69.1362V5.708ZM77.1387 6.94H80.8207C80.802 6.436 80.634 6.02533 80.3167 5.708C79.9994 5.38133 79.5514 5.218 78.9727 5.218C78.45 5.218 78.0207 5.39067 77.6847 5.736C77.3487 6.072 77.1667 6.47333 77.1387 6.94ZM81.0167 8.69L82.1507 9.082C81.9547 9.70733 81.5907 10.2207 81.0587 10.622C80.5267 11.014 79.8827 11.21 79.1267 11.21C78.184 11.21 77.3814 10.888 76.7187 10.244C76.0654 9.59067 75.7387 8.71333 75.7387 7.612C75.7387 6.58533 76.056 5.736 76.6907 5.064C77.3254 4.392 78.0814 4.056 78.9587 4.056C79.976 4.056 80.7694 4.378 81.3387 5.022C81.908 5.65667 82.1927 6.51067 82.1927 7.584C82.1927 7.752 82.1834 7.892 82.1647 8.004H77.0967C77.106 8.60133 77.302 9.09133 77.6847 9.474C78.0767 9.85667 78.5574 10.048 79.1267 10.048C80.088 10.048 80.718 9.59533 81.0167 8.69ZM83.5226 9.25L84.7126 8.83C84.7592 9.194 84.9179 9.49733 85.1886 9.74C85.4592 9.97333 85.8232 10.09 86.2806 10.09C86.6352 10.09 86.9152 10.006 87.1206 9.838C87.3259 9.66067 87.4286 9.446 87.4286 9.194C87.4286 8.746 87.1392 8.45667 86.5606 8.326L85.4126 8.074C84.8899 7.962 84.4792 7.738 84.1806 7.402C83.8819 7.066 83.7326 6.66 83.7326 6.184C83.7326 5.60533 83.9659 5.106 84.4326 4.686C84.9086 4.266 85.4732 4.056 86.1266 4.056C86.5559 4.056 86.9386 4.12133 87.2746 4.252C87.6106 4.37333 87.8719 4.53667 88.0586 4.742C88.2452 4.94733 88.3852 5.13867 88.4786 5.316C88.5719 5.49333 88.6419 5.67533 88.6886 5.862L87.5266 6.296C87.5079 6.184 87.4752 6.07667 87.4286 5.974C87.3819 5.862 87.3072 5.74067 87.2046 5.61C87.1112 5.47933 86.9712 5.37667 86.7846 5.302C86.5979 5.218 86.3786 5.176 86.1266 5.176C85.7999 5.176 85.5292 5.26467 85.3146 5.442C85.1092 5.61933 85.0066 5.82933 85.0066 6.072C85.0066 6.50133 85.2632 6.772 85.7766 6.884L86.8686 7.122C87.4659 7.25267 87.9232 7.49533 88.2406 7.85C88.5672 8.19533 88.7306 8.62 88.7306 9.124C88.7306 9.656 88.5112 10.1367 88.0726 10.566C87.6432 10.9953 87.0412 11.21 86.2666 11.21C85.4359 11.21 84.7872 11.0047 84.3206 10.594C83.8539 10.174 83.5879 9.726 83.5226 9.25ZM91.5483 6.94H95.2303C95.2116 6.436 95.0436 6.02533 94.7263 5.708C94.409 5.38133 93.961 5.218 93.3823 5.218C92.8596 5.218 92.4303 5.39067 92.0943 5.736C91.7583 6.072 91.5763 6.47333 91.5483 6.94ZM95.4263 8.69L96.5603 9.082C96.3643 9.70733 96.0003 10.2207 95.4683 10.622C94.9363 11.014 94.2923 11.21 93.5363 11.21C92.5936 11.21 91.791 10.888 91.1283 10.244C90.475 9.59067 90.1483 8.71333 90.1483 7.612C90.1483 6.58533 90.4656 5.736 91.1003 5.064C91.735 4.392 92.491 4.056 93.3683 4.056C94.3856 4.056 95.179 4.378 95.7483 5.022C96.3176 5.65667 96.6023 6.51067 96.6023 7.584C96.6023 7.752 96.593 7.892 96.5743 8.004H91.5063C91.5156 8.60133 91.7116 9.09133 92.0943 9.474C92.4863 9.85667 92.967 10.048 93.5363 10.048C94.4976 10.048 95.1276 9.59533 95.4263 8.69ZM102.3 4.196V5.596C102.104 5.568 101.913 5.554 101.726 5.554C100.494 5.554 99.8782 6.24467 99.8782 7.626V11H98.5622V4.266H99.8502V5.442C100.261 4.58333 100.933 4.154 101.866 4.154C102.016 4.154 102.16 4.168 102.3 4.196ZM109.956 4.266L107.268 11H105.938L103.208 4.266H104.692L106.61 9.46L108.542 4.266H109.956ZM112.144 6.94H115.826C115.807 6.436 115.639 6.02533 115.322 5.708C115.005 5.38133 114.557 5.218 113.978 5.218C113.455 5.218 113.026 5.39067 112.69 5.736C112.354 6.072 112.172 6.47333 112.144 6.94ZM116.022 8.69L117.156 9.082C116.96 9.70733 116.596 10.2207 116.064 10.622C115.532 11.014 114.888 11.21 114.132 11.21C113.189 11.21 112.387 10.888 111.724 10.244C111.071 9.59067 110.744 8.71333 110.744 7.612C110.744 6.58533 111.061 5.736 111.696 5.064C112.331 4.392 113.087 4.056 113.964 4.056C114.981 4.056 115.775 4.378 116.344 5.022C116.913 5.65667 117.198 6.51067 117.198 7.584C117.198 7.752 117.189 7.892 117.17 8.004H112.102C112.111 8.60133 112.307 9.09133 112.69 9.474C113.082 9.85667 113.563 10.048 114.132 10.048C115.093 10.048 115.723 9.59533 116.022 8.69ZM119.942 7.612C119.942 8.32133 120.115 8.9 120.46 9.348C120.815 9.796 121.3 10.02 121.916 10.02C122.504 10.02 122.975 9.79133 123.33 9.334C123.685 8.87667 123.862 8.29333 123.862 7.584C123.862 6.884 123.689 6.31933 123.344 5.89C122.999 5.46067 122.527 5.246 121.93 5.246C121.333 5.246 120.852 5.46533 120.488 5.904C120.124 6.34267 119.942 6.912 119.942 7.612ZM123.876 10.09V9.978C123.699 10.3233 123.428 10.6127 123.064 10.846C122.709 11.07 122.285 11.182 121.79 11.182C120.829 11.182 120.054 10.846 119.466 10.174C118.887 9.49267 118.598 8.63867 118.598 7.612C118.598 6.632 118.897 5.80133 119.494 5.12C120.091 4.42933 120.857 4.084 121.79 4.084C122.341 4.084 122.789 4.196 123.134 4.42C123.479 4.63467 123.717 4.90067 123.848 5.218V0.863999H125.15V9.754C125.15 10.2113 125.173 10.6267 125.22 11H123.946C123.899 10.7387 123.876 10.4353 123.876 10.09ZM131.589 1.074H134.823C135.747 1.074 136.475 1.32133 137.007 1.816C137.548 2.31067 137.819 2.95933 137.819 3.762C137.819 4.27533 137.683 4.71867 137.413 5.092C137.142 5.46533 136.783 5.736 136.335 5.904C136.885 6.044 137.319 6.338 137.637 6.786C137.963 7.22467 138.127 7.72867 138.127 8.298C138.127 9.082 137.842 9.73067 137.273 10.244C136.703 10.748 135.966 11 135.061 11H131.589V1.074ZM132.961 5.414H134.669C135.21 5.414 135.639 5.26933 135.957 4.98C136.274 4.68133 136.433 4.29867 136.433 3.832C136.433 3.356 136.269 2.978 135.943 2.698C135.616 2.418 135.173 2.278 134.613 2.278H132.961V5.414ZM132.961 9.796H134.865C135.425 9.796 135.873 9.65133 136.209 9.362C136.554 9.07267 136.727 8.69 136.727 8.214C136.727 7.71933 136.573 7.32733 136.265 7.038C135.957 6.73933 135.509 6.59 134.921 6.59H132.961V9.796ZM141.762 13.814H140.32L142 10.258L139.102 4.266H140.614L142.714 8.914L144.73 4.266H146.144L141.762 13.814ZM162.334 11H160.976V3.272L157.588 11H156.328L152.968 3.272V11H151.61V1.074H153.472L156.972 9.152L160.5 1.074H162.334V11ZM166.3 11H164.998V4.266H166.3V11ZM164.97 2.39C164.793 2.20333 164.704 1.97933 164.704 1.718C164.704 1.45667 164.793 1.23267 164.97 1.046C165.157 0.859333 165.381 0.766 165.642 0.766C165.904 0.766 166.128 0.859333 166.314 1.046C166.501 1.22333 166.594 1.44733 166.594 1.718C166.594 1.97933 166.501 2.20333 166.314 2.39C166.128 2.56733 165.904 2.656 165.642 2.656C165.381 2.656 165.157 2.56733 164.97 2.39ZM172.557 4.196V5.596C172.361 5.568 172.17 5.554 171.983 5.554C170.751 5.554 170.135 6.24467 170.135 7.626V11H168.819V4.266H170.107V5.442C170.518 4.58333 171.19 4.154 172.123 4.154C172.273 4.154 172.417 4.168 172.557 4.196ZM173.82 9.194C173.82 8.61533 174.007 8.15333 174.38 7.808C174.753 7.45333 175.248 7.234 175.864 7.15L177.684 6.884C178.029 6.83733 178.202 6.66933 178.202 6.38C178.202 6.02533 178.081 5.736 177.838 5.512C177.595 5.288 177.231 5.176 176.746 5.176C176.298 5.176 175.943 5.302 175.682 5.554C175.421 5.79667 175.267 6.12333 175.22 6.534L173.96 6.24C174.025 5.596 174.319 5.07333 174.842 4.672C175.365 4.26133 175.99 4.056 176.718 4.056C177.67 4.056 178.375 4.28933 178.832 4.756C179.289 5.21333 179.518 5.80133 179.518 6.52V9.894C179.518 10.2953 179.546 10.664 179.602 11H178.314C178.267 10.72 178.244 10.4167 178.244 10.09C178.057 10.3887 177.782 10.65 177.418 10.874C177.063 11.098 176.615 11.21 176.074 11.21C175.411 11.21 174.87 11.014 174.45 10.622C174.03 10.2207 173.82 9.74467 173.82 9.194ZM176.256 10.104C176.844 10.104 177.315 9.94533 177.67 9.628C178.025 9.31067 178.202 8.80667 178.202 8.116V7.808L176.144 8.116C175.845 8.16267 175.607 8.27 175.43 8.438C175.253 8.606 175.164 8.83467 175.164 9.124C175.164 9.38533 175.262 9.614 175.458 9.81C175.663 10.006 175.929 10.104 176.256 10.104ZM181.358 11.364L182.632 11.07C182.679 11.546 182.87 11.938 183.206 12.246C183.542 12.5633 183.962 12.722 184.466 12.722C185.838 12.722 186.524 11.994 186.524 10.538V9.572C186.356 9.89867 186.09 10.1647 185.726 10.37C185.371 10.5753 184.951 10.678 184.466 10.678C183.57 10.678 182.828 10.3747 182.24 9.768C181.661 9.152 181.372 8.368 181.372 7.416C181.372 6.492 181.661 5.71733 182.24 5.092C182.819 4.45733 183.561 4.14 184.466 4.14C185.493 4.14 186.183 4.49467 186.538 5.204V4.266H187.84V10.496C187.84 10.944 187.779 11.3593 187.658 11.742C187.546 12.134 187.364 12.4933 187.112 12.82C186.86 13.1467 186.505 13.4033 186.048 13.59C185.6 13.7767 185.073 13.87 184.466 13.87C183.635 13.87 182.931 13.632 182.352 13.156C181.773 12.6893 181.442 12.092 181.358 11.364ZM184.662 9.572C185.231 9.572 185.693 9.376 186.048 8.984C186.403 8.58267 186.58 8.06 186.58 7.416C186.58 6.772 186.403 6.254 186.048 5.862C185.693 5.46067 185.231 5.26 184.662 5.26C184.083 5.26 183.612 5.456 183.248 5.848C182.893 6.24 182.716 6.76267 182.716 7.416C182.716 8.07867 182.889 8.606 183.234 8.998C183.589 9.38067 184.065 9.572 184.662 9.572ZM191.076 6.94H194.758C194.739 6.436 194.571 6.02533 194.254 5.708C193.936 5.38133 193.488 5.218 192.91 5.218C192.387 5.218 191.958 5.39067 191.622 5.736C191.286 6.072 191.104 6.47333 191.076 6.94ZM194.954 8.69L196.088 9.082C195.892 9.70733 195.528 10.2207 194.996 10.622C194.464 11.014 193.82 11.21 193.064 11.21C192.121 11.21 191.318 10.888 190.656 10.244C190.002 9.59067 189.676 8.71333 189.676 7.612C189.676 6.58533 189.993 5.736 190.628 5.064C191.262 4.392 192.018 4.056 192.896 4.056C193.913 4.056 194.706 4.378 195.276 5.022C195.845 5.65667 196.13 6.51067 196.13 7.584C196.13 7.752 196.12 7.892 196.102 8.004H191.034C191.043 8.60133 191.239 9.09133 191.622 9.474C192.014 9.85667 192.494 10.048 193.064 10.048C194.025 10.048 194.655 9.59533 194.954 8.69ZM202.724 5.19L201.352 5.022C201.342 4.938 201.338 4.81667 201.338 4.658C201.338 3.846 201.622 3.15533 202.192 2.586C202.761 2.00733 203.522 1.718 204.474 1.718C205.416 1.718 206.163 1.98867 206.714 2.53C207.264 3.062 207.54 3.72 207.54 4.504C207.54 5.652 206.97 6.58533 205.832 7.304L204.04 8.452C203.396 8.86267 203.027 9.28733 202.934 9.726H207.596V11H201.24C201.258 10.2347 201.431 9.56267 201.758 8.984C202.094 8.40533 202.64 7.87333 203.396 7.388L204.908 6.408C205.738 5.876 206.154 5.246 206.154 4.518C206.154 4.07 206.004 3.692 205.706 3.384C205.407 3.076 204.987 2.922 204.446 2.922C203.876 2.922 203.442 3.09467 203.144 3.44C202.845 3.78533 202.696 4.23333 202.696 4.784C202.696 4.868 202.705 5.00333 202.724 5.19ZM211.296 3.524C210.764 4.084 210.498 5.064 210.498 6.464C210.498 7.864 210.764 8.844 211.296 9.404C211.669 9.796 212.15 9.992 212.738 9.992C213.326 9.992 213.806 9.796 214.18 9.404C214.712 8.844 214.978 7.864 214.978 6.464C214.978 5.064 214.712 4.084 214.18 3.524C213.806 3.132 213.326 2.936 212.738 2.936C212.15 2.936 211.669 3.132 211.296 3.524ZM209.952 9.754C209.41 8.95133 209.14 7.85467 209.14 6.464C209.14 5.07333 209.41 3.97667 209.952 3.174C210.596 2.20333 211.524 1.718 212.738 1.718C213.951 1.718 214.88 2.20333 215.524 3.174C216.065 3.97667 216.336 5.07333 216.336 6.464C216.336 7.85467 216.065 8.95133 215.524 9.754C214.88 10.7247 213.951 11.21 212.738 11.21C211.524 11.21 210.596 10.7247 209.952 9.754ZM219.293 5.19L217.921 5.022C217.912 4.938 217.907 4.81667 217.907 4.658C217.907 3.846 218.192 3.15533 218.761 2.586C219.331 2.00733 220.091 1.718 221.043 1.718C221.986 1.718 222.733 1.98867 223.283 2.53C223.834 3.062 224.109 3.72 224.109 4.504C224.109 5.652 223.54 6.58533 222.401 7.304L220.609 8.452C219.965 8.86267 219.597 9.28733 219.503 9.726H224.165V11H217.809C217.828 10.2347 218.001 9.56267 218.327 8.984C218.663 8.40533 219.209 7.87333 219.965 7.388L221.477 6.408C222.308 5.876 222.723 5.246 222.723 4.518C222.723 4.07 222.574 3.692 222.275 3.384C221.977 3.076 221.557 2.922 221.015 2.922C220.446 2.922 220.012 3.09467 219.713 3.44C219.415 3.78533 219.265 4.23333 219.265 4.784C219.265 4.868 219.275 5.00333 219.293 5.19ZM227.866 3.524C227.334 4.084 227.068 5.064 227.068 6.464C227.068 7.864 227.334 8.844 227.866 9.404C228.239 9.796 228.72 9.992 229.308 9.992C229.896 9.992 230.376 9.796 230.75 9.404C231.282 8.844 231.548 7.864 231.548 6.464C231.548 5.064 231.282 4.084 230.75 3.524C230.376 3.132 229.896 2.936 229.308 2.936C228.72 2.936 228.239 3.132 227.866 3.524ZM226.522 9.754C225.98 8.95133 225.71 7.85467 225.71 6.464C225.71 5.07333 225.98 3.97667 226.522 3.174C227.166 2.20333 228.094 1.718 229.308 1.718C230.521 1.718 231.45 2.20333 232.094 3.174C232.635 3.97667 232.906 5.07333 232.906 6.464C232.906 7.85467 232.635 8.95133 232.094 9.754C231.45 10.7247 230.521 11.21 229.308 11.21C228.094 11.21 227.166 10.7247 226.522 9.754Z" fill="white"/>
</svg>
